<svg width="25" height="25" viewBox="0 0 25 25" fill="none" xmlns="http://www.w3.org/2000/svg">
<path d="M12.5 0C10.0277 0 7.61099 0.733112 5.55538 2.10663C3.49976 3.48015 1.89761 5.43238 0.951511 7.71646C0.00541604 10.0005 -0.242126 12.5139 0.24019 14.9386C0.722505 17.3634 1.91301 19.5907 3.66117 21.3388C5.40933 23.087 7.63661 24.2775 10.0614 24.7598C12.4861 25.2421 14.9995 24.9946 17.2835 24.0485C19.5676 23.1024 21.5199 21.5002 22.8934 19.4446C24.2669 17.389 25 14.9723 25 12.5C25 9.18479 23.683 6.00537 21.3388 3.66116C18.9946 1.31696 15.8152 0 12.5 0V0ZM12.5 23.2143C10.3809 23.2143 8.30942 22.5859 6.54747 21.4086C4.78551 20.2313 3.41223 18.558 2.6013 16.6002C1.79036 14.6424 1.57818 12.4881 1.99159 10.4097C2.405 8.33138 3.42544 6.42227 4.92386 4.92385C6.42228 3.42544 8.33138 2.405 10.4098 1.99159C12.4881 1.57817 14.6424 1.79035 16.6002 2.60129C18.558 3.41223 20.2313 4.78551 21.4086 6.54746C22.5859 8.30942 23.2143 10.3809 23.2143 12.5C23.2143 15.3416 22.0855 18.0668 20.0761 20.0761C18.0668 22.0855 15.3416 23.2143 12.5 23.2143Z" fill="#DC3545"/>
<path d="M11.6069 5.35693H13.3926V15.1784H11.6069V5.35693Z" fill="#DC3545"/>
<path d="M12.4999 17.8569C12.235 17.8569 11.9761 17.9355 11.7559 18.0826C11.5356 18.2298 11.364 18.439 11.2626 18.6837C11.1612 18.9284 11.1347 19.1977 11.1864 19.4575C11.2381 19.7173 11.3656 19.9559 11.5529 20.1432C11.7402 20.3305 11.9789 20.4581 12.2386 20.5098C12.4984 20.5614 12.7677 20.5349 13.0125 20.4336C13.2572 20.3322 13.4663 20.1605 13.6135 19.9403C13.7607 19.72 13.8392 19.4611 13.8392 19.1962C13.8392 18.841 13.6981 18.5004 13.4469 18.2492C13.1958 17.998 12.8551 17.8569 12.4999 17.8569Z" fill="#DC3545"/>
</svg>
